<?xml version="1.0" encoding="utf-8"?>
<!-- Generator: Adobe Illustrator 16.2.0, SVG Export Plug-In . SVG Version: 6.00 Build 0)  -->
<!DOCTYPE svg PUBLIC "-//W3C//DTD SVG 1.1//EN" "http://www.w3.org/Graphics/SVG/1.1/DTD/svg11.dtd">
<svg version="1.1" id="Layer_1" xmlns="http://www.w3.org/2000/svg" xmlns:xlink="http://www.w3.org/1999/xlink" x="0px" y="0px"
	 width="128px" height="128px" viewBox="0 0 128 128" enable-background="new 0 0 128 128" xml:space="preserve">
<g>
	<circle opacity="0.6" fill-rule="evenodd" clip-rule="evenodd" cx="64.256" cy="64.071" r="63.752"/>
	<path opacity="0.8" fill="#FFFFFF" d="M64.256,6.775c-31.643,0-57.295,25.65-57.295,57.295c0,31.643,25.653,57.295,57.295,57.295
		c31.644,0,57.295-25.652,57.295-57.295C121.552,32.426,95.9,6.775,64.256,6.775z M64.256,114.628
		c-27.922,0-50.558-22.635-50.558-50.557c0-27.923,22.636-50.558,50.558-50.558c27.923,0,50.557,22.634,50.557,50.558
		C114.813,91.993,92.18,114.628,64.256,114.628z"/>
	<polygon opacity="0.8" fill-rule="evenodd" clip-rule="evenodd" fill="#FFFFFF" points="45,31.646 45,96.496 100.773,64.118 	"/>
</g>
</svg>
